<mxfile host="Electron" modified="2024-04-17T18:44:59.454Z" agent="Mozilla/5.0 (Macintosh; Intel Mac OS X 10_15_7) AppleWebKit/537.36 (KHTML, like Gecko) draw.io/21.5.1 Chrome/112.0.5615.204 Electron/24.6.0 Safari/537.36" etag="u9Vc2la5iUhjEzvyhcwE" version="21.5.1" type="device">
  <diagram name="Page-1" id="UevIOWe2GYovkRQRXy0o">
    <mxGraphModel dx="2189" dy="1214" grid="0" gridSize="10" guides="1" tooltips="1" connect="1" arrows="1" fold="1" page="0" pageScale="1" pageWidth="850" pageHeight="1100" math="0" shadow="0">
      <root>
        <mxCell id="0" />
        <mxCell id="1" parent="0" />
        <mxCell id="yiugnFBK6Wv82bPLMD4G-1" value="AWS Cloud" style="points=[[0,0],[0.25,0],[0.5,0],[0.75,0],[1,0],[1,0.25],[1,0.5],[1,0.75],[1,1],[0.75,1],[0.5,1],[0.25,1],[0,1],[0,0.75],[0,0.5],[0,0.25]];outlineConnect=0;gradientColor=none;html=1;whiteSpace=wrap;fontSize=12;fontStyle=0;container=1;pointerEvents=0;collapsible=0;recursiveResize=0;shape=mxgraph.aws4.group;grIcon=mxgraph.aws4.group_aws_cloud;strokeColor=#232F3E;fillColor=none;verticalAlign=top;align=left;spacingLeft=30;fontColor=#232F3E;dashed=0;" vertex="1" parent="1">
          <mxGeometry x="282" y="222" width="765" height="739" as="geometry" />
        </mxCell>
        <mxCell id="yiugnFBK6Wv82bPLMD4G-25" style="edgeStyle=orthogonalEdgeStyle;rounded=0;orthogonalLoop=1;jettySize=auto;html=1;entryX=0;entryY=0.75;entryDx=0;entryDy=0;" edge="1" parent="yiugnFBK6Wv82bPLMD4G-1" source="yiugnFBK6Wv82bPLMD4G-8" target="yiugnFBK6Wv82bPLMD4G-11">
          <mxGeometry relative="1" as="geometry">
            <Array as="points">
              <mxPoint x="417" y="394" />
            </Array>
          </mxGeometry>
        </mxCell>
        <mxCell id="yiugnFBK6Wv82bPLMD4G-26" style="edgeStyle=orthogonalEdgeStyle;rounded=0;orthogonalLoop=1;jettySize=auto;html=1;entryX=1;entryY=0.75;entryDx=0;entryDy=0;" edge="1" parent="yiugnFBK6Wv82bPLMD4G-1" source="yiugnFBK6Wv82bPLMD4G-8" target="yiugnFBK6Wv82bPLMD4G-12">
          <mxGeometry relative="1" as="geometry">
            <Array as="points">
              <mxPoint x="379" y="394" />
            </Array>
          </mxGeometry>
        </mxCell>
        <mxCell id="yiugnFBK6Wv82bPLMD4G-8" value="&lt;b&gt;AWS Lambda&lt;/b&gt;&lt;br&gt;TextToSqlFunction" style="sketch=0;outlineConnect=0;fontColor=#232F3E;gradientColor=none;fillColor=#D45B07;strokeColor=none;dashed=0;verticalLabelPosition=bottom;verticalAlign=top;align=center;html=1;fontSize=12;fontStyle=0;aspect=fixed;pointerEvents=1;shape=mxgraph.aws4.lambda_function;" vertex="1" parent="yiugnFBK6Wv82bPLMD4G-1">
          <mxGeometry x="358" y="565" width="80" height="80" as="geometry" />
        </mxCell>
        <mxCell id="yiugnFBK6Wv82bPLMD4G-20" style="edgeStyle=orthogonalEdgeStyle;rounded=0;orthogonalLoop=1;jettySize=auto;html=1;entryX=1;entryY=0.25;entryDx=0;entryDy=0;" edge="1" parent="yiugnFBK6Wv82bPLMD4G-1" source="yiugnFBK6Wv82bPLMD4G-9" target="yiugnFBK6Wv82bPLMD4G-12">
          <mxGeometry relative="1" as="geometry">
            <Array as="points">
              <mxPoint x="380" y="354" />
            </Array>
          </mxGeometry>
        </mxCell>
        <mxCell id="yiugnFBK6Wv82bPLMD4G-35" value="Generate vector&lt;br&gt;representations" style="edgeLabel;html=1;align=center;verticalAlign=middle;resizable=0;points=[];" vertex="1" connectable="0" parent="yiugnFBK6Wv82bPLMD4G-20">
          <mxGeometry x="-0.338" relative="1" as="geometry">
            <mxPoint x="-66" y="-61" as="offset" />
          </mxGeometry>
        </mxCell>
        <mxCell id="yiugnFBK6Wv82bPLMD4G-11" value="Amazon OpenSearch &#xa;Serverless&#xa;" style="shape=image;verticalLabelPosition=bottom;labelBackgroundColor=default;verticalAlign=top;aspect=fixed;imageAspect=0;image=data:image/svg+xml,PHN2ZyB4bWxuczp4bGluaz0iaHR0cDovL3d3dy53My5vcmcvMTk5OS94bGluayIgeG1sbnM9Imh0dHA6Ly93d3cudzMub3JnLzIwMDAvc3ZnIiB2ZXJzaW9uPSIxLjEiIHZpZXdCb3g9IjAgMCA4MCA4MCIgaGVpZ2h0PSI4MHB4IiB3aWR0aD0iODBweCI+JiN4YTsgICAgPHRpdGxlPkljb24tQXJjaGl0ZWN0dXJlLzY0L0FyY2hfQW1hem9uLU9wZW5TZWFyY2gtU2VydmljZV82NDwvdGl0bGU+JiN4YTsgICAgPGcgZmlsbC1ydWxlPSJldmVub2RkIiBmaWxsPSJub25lIiBzdHJva2Utd2lkdGg9IjEiIHN0cm9rZT0ibm9uZSIgaWQ9Ikljb24tQXJjaGl0ZWN0dXJlLzY0L0FyY2hfQW1hem9uLU9wZW5TZWFyY2gtU2VydmljZV82NCI+JiN4YTsgICAgICAgIDxnIGZpbGw9IiM4QzRGRkYiIGlkPSJJY29uLUFyY2hpdGVjdHVyZS1CRy82NC9BbmFseXRpY3MiPiYjeGE7ICAgICAgICAgICAgPHJlY3QgaGVpZ2h0PSI4MCIgd2lkdGg9IjgwIiB5PSIwIiB4PSIwIiBpZD0iUmVjdGFuZ2xlIi8+JiN4YTsgICAgICAgIDwvZz4mI3hhOyAgICAgICAgPHBhdGggZmlsbD0iI0ZGRkZGRiIgaWQ9IkFtYXpvbi1PcGVuU2VhcmNoLVNlcnZpY2VfSWNvbl82NF9TcXVpZCIgZD0iTTQ0LjI2LDUxLjMzIEMzOS44NDMsNTEuMzMgMzYuMjUsNDcuNzM3IDM2LjI1LDQzLjMyMSBDMzYuMjUsMzguOTA0IDM5Ljg0MywzNS4zMTEgNDQuMjYsMzUuMzExIEM0OC42NzcsMzUuMzExIDUyLjI3LDM4LjkwNCA1Mi4yNyw0My4zMjEgQzUyLjI3LDQ3LjczNyA0OC42NzcsNTEuMzMgNDQuMjYsNTEuMzMgTDQ0LjI2LDUxLjMzIFogTTQ0LjI2LDMzLjMxMSBDMzguNzQsMzMuMzExIDM0LjI1LDM3LjgwMSAzNC4yNSw0My4zMjEgQzM0LjI1LDQ4Ljg0IDM4Ljc0LDUzLjMzIDQ0LjI2LDUzLjMzIEM0OS43OCw1My4zMyA1NC4yNyw0OC44NCA1NC4yNyw0My4zMjEgQzU0LjI3LDM3LjgwMSA0OS43OCwzMy4zMTEgNDQuMjYsMzMuMzExIEw0NC4yNiwzMy4zMTEgWiBNNjQuNTQ4LDYxLjM0NiBDNjMuODk3LDYyLjA2NyA2Mi43NzcsNjIuMTI3IDYyLjA1Miw2MS40NzcgTDUzLjcxMiw1My45NTQgQzU0LjU5Myw1My4xNyA1NS4zODQsNTIuMjkgNTYuMDQ5LDUxLjMxMyBMNjQuNDE2LDU4Ljg1MSBDNjUuMTM5LDU5LjUwMyA2NS4xOTcsNjAuNjI0IDY0LjU0OCw2MS4zNDYgTDY0LjU0OCw2MS4zNDYgWiBNMzIuMDExLDQzLjMyMSBDMzIuMDExLDM2LjU2NiAzNy41MDYsMzEuMDcxIDQ0LjI2LDMxLjA3MSBDNTEuMDE0LDMxLjA3MSA1Ni41MDksMzYuNTY2IDU2LjUwOSw0My4zMjEgQzU2LjUwOSw1MC4wNzUgNTEuMDE0LDU1LjU3IDQ0LjI2LDU1LjU3IEMzNy41MDYsNTUuNTcgMzIuMDExLDUwLjA3NSAzMi4wMTEsNDMuMzIxIEwzMi4wMTEsNDMuMzIxIFogTTU3LjA2Myw0OS41MzUgQzU3Ljk4LDQ3LjY1NCA1OC41MDksNDUuNTUgNTguNTA5LDQzLjMyMSBDNTguNTA5LDM1LjQ2MyA1Mi4xMTcsMjkuMDcxIDQ0LjI2LDI5LjA3MSBDMzYuNDAzLDI5LjA3MSAzMC4wMTEsMzUuNDYzIDMwLjAxMSw0My4zMjEgQzMwLjAxMSw1MS4xNzggMzYuNDAzLDU3LjU3IDQ0LjI2LDU3LjU3IEM0Ny4xNTksNTcuNTcgNDkuODU2LDU2LjY5NSA1Mi4xMDksNTUuMjAyIEw2MC43MTQsNjIuOTY0IEM2MS40MzIsNjMuNjA5IDYyLjMzMyw2My45MjcgNjMuMjMyLDYzLjkyNjAwMjQgQzY0LjI2Myw2My45MjYwMDI0IDY1LjI5LDYzLjUwOCA2Ni4wMzQsNjIuNjg1IEM2Ny40Miw2MS4xNDMgNjcuMjk2LDU4Ljc1NyA2NS43NTYsNTcuMzY2IEw1Ny4wNjMsNDkuNTM1IFogTTY3LDIwIEw2Nyw1NCBMNjUsNTQgTDY1LDIxIEw1NywyMSBMNTcsMzIgTDU1LDMyIEw1NSwyMCBDNTUsMTkuNDQ4IDU1LjQ0OCwxOSA1NiwxOSBMNjYsMTkgQzY2LjU1MywxOSA2NywxOS40NDggNjcsMjAgTDY3LDIwIFogTTUxLDYxIEw1Myw2MSBMNTMsNjYgQzUzLDY2LjU1MyA1Mi41NTMsNjcgNTIsNjcgTDQyLDY3IEM0MS40NDcsNjcgNDEsNjYuNTUzIDQxLDY2IEw0MSw2MCBMNDMsNjAgTDQzLDY1IEw1MSw2NSBMNTEsNjEgWiBNNDMsMjYgTDQxLDI2IEw0MSwxNCBDNDEsMTMuNDQ4IDQxLjQ0NywxMyA0MiwxMyBMNTIsMTMgQzUyLjU1MywxMyA1MywxMy40NDggNTMsMTQgTDUzLDI4IEw1MSwyOCBMNTEsMTUgTDQzLDE1IEw0MywyNiBaIE0zNyw1OSBMMzksNTkgTDM5LDY2IEMzOSw2Ni41NTMgMzguNTUzLDY3IDM4LDY3IEwyOCw2NyBDMjcuNDQ4LDY3IDI3LDY2LjU1MyAyNyw2NiBMMjcsNTEgTDI5LDUxIEwyOSw2NSBMMzcsNjUgTDM3LDU5IFogTTI5LDM2IEwyNywzNiBMMjcsMjMgQzI3LDIyLjQ0OCAyNy40NDgsMjIgMjgsMjIgTDM4LDIyIEMzOC41NTMsMjIgMzksMjIuNDQ4IDM5LDIzIEwzOSwyNyBMMzcsMjcgTDM3LDI0IEwyOSwyNCBMMjksMzYgWiBNMTUsNjUgTDIzLDY1IEwyMywzMSBMMTUsMzEgTDE1LDY1IFogTTI0LDI5IEwxNCwyOSBDMTMuNDQ4LDI5IDEzLDI5LjQ0OCAxMywzMCBMMTMsNjYgQzEzLDY2LjU1MyAxMy40NDgsNjcgMTQsNjcgTDI0LDY3IEMyNC41NTMsNjcgMjUsNjYuNTUzIDI1LDY2IEwyNSwzMCBDMjUsMjkuNDQ4IDI0LjU1MywyOSAyNCwyOSBMMjQsMjkgWiIvPiYjeGE7ICAgIDwvZz4mI3hhOzwvc3ZnPg==;fontStyle=1" vertex="1" parent="yiugnFBK6Wv82bPLMD4G-1">
          <mxGeometry x="603" y="334" width="80" height="80" as="geometry" />
        </mxCell>
        <mxCell id="yiugnFBK6Wv82bPLMD4G-12" value="Amazon Bedrock" style="shape=image;verticalLabelPosition=bottom;labelBackgroundColor=default;verticalAlign=top;aspect=fixed;imageAspect=0;image=data:image/svg+xml,PHN2ZyB4bWxuczp4bGluaz0iaHR0cDovL3d3dy53My5vcmcvMTk5OS94bGluayIgeG1sbnM9Imh0dHA6Ly93d3cudzMub3JnLzIwMDAvc3ZnIiB2ZXJzaW9uPSIxLjEiIHZpZXdCb3g9IjAgMCA4MCA4MCIgaGVpZ2h0PSI4MHB4IiB3aWR0aD0iODBweCI+JiN4YTsgICAgPHRpdGxlPkljb24tQXJjaGl0ZWN0dXJlLzY0L0FyY2hfQW1hem9uLUJlZHJvY2tfNjQ8L3RpdGxlPiYjeGE7ICAgIDxnIGZpbGwtcnVsZT0iZXZlbm9kZCIgZmlsbD0ibm9uZSIgc3Ryb2tlLXdpZHRoPSIxIiBzdHJva2U9Im5vbmUiIGlkPSJJY29uLUFyY2hpdGVjdHVyZS82NC9BcmNoX0FtYXpvbi1CZWRyb2NrXzY0Ij4mI3hhOyAgICAgICAgPGcgZmlsbD0iIzAxQTg4RCIgaWQ9Ikljb24tQXJjaGl0ZWN0dXJlLUJHLzY0L01hY2hpbmUtTGVhcm5pbmciPiYjeGE7ICAgICAgICAgICAgPHJlY3QgaGVpZ2h0PSI4MCIgd2lkdGg9IjgwIiB5PSIwIiB4PSIwIiBpZD0iUmVjdGFuZ2xlIi8+JiN4YTsgICAgICAgIDwvZz4mI3hhOyAgICAgICAgPGcgZmlsbD0iI0ZGRkZGRiIgdHJhbnNmb3JtPSJ0cmFuc2xhdGUoMTIuMDAwMDAwLCAxMi4wMDAwMDApIiBpZD0iSWNvbi1TZXJ2aWNlLzY0L0FtYXpvbi1CZWRyb2NrXzY0Ij4mI3hhOyAgICAgICAgICAgIDxwYXRoIGlkPSJGaWxsLTEiIGQ9Ik01MiwyNi45OTk4OTE4IEM1MC44OTcsMjYuOTk5ODkxOCA1MCwyNi4xMDI4OTE4IDUwLDI0Ljk5OTg5MTggQzUwLDIzLjg5Njg5MTggNTAuODk3LDIyLjk5OTg5MTggNTIsMjIuOTk5ODkxOCBDNTMuMTAzLDIyLjk5OTg5MTggNTQsMjMuODk2ODkxOCA1NCwyNC45OTk4OTE4IEM1NCwyNi4xMDI4OTE4IDUzLjEwMywyNi45OTk4OTE4IDUyLDI2Ljk5OTg5MTggTDUyLDI2Ljk5OTg5MTggWiBNMjAuMTEzLDUzLjkwNzg5MTggTDE2Ljg2NSw1Mi4wMTM4OTE4IEwyMy41Myw0Ny44NDc4OTE4IEwyMi40Nyw0Ni4xNTE4OTE4IEwxNC45MTMsNTAuODc0ODkxOCBMOSw0Ny40MjU4OTE4IEw5LDM4LjUzNDg5MTggTDE0LjU1NSwzNC44MzE4OTE4IEwxMy40NDUsMzMuMTY3ODkxOCBMNy45NTksMzYuODI0ODkxOCBMMiwzMy40MTk4OTE4IEwyLDI4LjU3OTg5MTggTDguNDk2LDI0Ljg2Nzg5MTggTDcuNTA0LDIzLjEzMTg5MTggTDIsMjYuMjc2ODkxOCBMMiwyMi41Nzk4OTE4IEw4LDE5LjE1MTg5MTggTDE0LDIyLjU3OTg5MTggTDE0LDI2LjQzMzg5MTggTDkuNDg1LDI5LjE0Mjg5MTggTDEwLjUxNSwzMC44NTY4OTE4IEwxNSwyOC4xNjU4OTE4IEwxOS40ODUsMzAuODU2ODkxOCBMMjAuNTE1LDI5LjE0Mjg5MTggTDE2LDI2LjQzMzg5MTggTDE2LDIyLjUzNDg5MTggTDIxLjU1NSwxOC44MzE4OTE4IEMyMS44MzMsMTguNjQ1ODkxOCAyMiwxOC4zMzM4OTE4IDIyLDE3Ljk5OTg5MTggTDIyLDEwLjk5OTg5MTggTDIwLDEwLjk5OTg5MTggTDIwLDE3LjQ2NDg5MTggTDE0Ljk1OSwyMC44MjQ4OTE4IEw5LDE3LjQxOTg5MTggTDksOC41NzM4OTE4MSBMMTQsNS42NTc4OTE4MSBMMTQsMTMuOTk5ODkxOCBMMTYsMTMuOTk5ODkxOCBMMTYsNC40OTA4OTE4MSBMMjAuMTEzLDIuMDkxODkxODEgTDI4LDQuNzIwODkxODEgTDI4LDMzLjQzMzg5MTggTDEzLjQ4NSw0Mi4xNDI4OTE4IEwxNC41MTUsNDMuODU2ODkxOCBMMjgsMzUuNzY1ODkxOCBMMjgsNTEuMjc4ODkxOCBMMjAuMTEzLDUzLjkwNzg5MTggWiBNNTAsMzcuOTk5ODkxOCBDNTAsMzkuMTAyODkxOCA0OS4xMDMsMzkuOTk5ODkxOCA0OCwzOS45OTk4OTE4IEM0Ni44OTcsMzkuOTk5ODkxOCA0NiwzOS4xMDI4OTE4IDQ2LDM3Ljk5OTg5MTggQzQ2LDM2Ljg5Njg5MTggNDYuODk3LDM1Ljk5OTg5MTggNDgsMzUuOTk5ODkxOCBDNDkuMTAzLDM1Ljk5OTg5MTggNTAsMzYuODk2ODkxOCA1MCwzNy45OTk4OTE4IEw1MCwzNy45OTk4OTE4IFogTTQwLDQ3Ljk5OTg5MTggQzQwLDQ5LjEwMjg5MTggMzkuMTAzLDQ5Ljk5OTg5MTggMzgsNDkuOTk5ODkxOCBDMzYuODk3LDQ5Ljk5OTg5MTggMzYsNDkuMTAyODkxOCAzNiw0Ny45OTk4OTE4IEMzNiw0Ni44OTY4OTE4IDM2Ljg5Nyw0NS45OTk4OTE4IDM4LDQ1Ljk5OTg5MTggQzM5LjEwMyw0NS45OTk4OTE4IDQwLDQ2Ljg5Njg5MTggNDAsNDcuOTk5ODkxOCBMNDAsNDcuOTk5ODkxOCBaIE0zOSw3Ljk5OTg5MTgxIEMzOSw2Ljg5Njg5MTgxIDM5Ljg5Nyw1Ljk5OTg5MTgxIDQxLDUuOTk5ODkxODEgQzQyLjEwMyw1Ljk5OTg5MTgxIDQzLDYuODk2ODkxODEgNDMsNy45OTk4OTE4MSBDNDMsOS4xMDI4OTE4MSA0Mi4xMDMsOS45OTk4OTE4MSA0MSw5Ljk5OTg5MTgxIEMzOS44OTcsOS45OTk4OTE4MSAzOSw5LjEwMjg5MTgxIDM5LDcuOTk5ODkxODEgTDM5LDcuOTk5ODkxODEgWiBNNTIsMjAuOTk5ODkxOCBDNTAuMTQxLDIwLjk5OTg5MTggNDguNTg5LDIyLjI3OTg5MTggNDguMTQyLDIzLjk5OTg5MTggTDMwLDIzLjk5OTg5MTggTDMwLDE4Ljk5OTg5MTggTDQxLDE4Ljk5OTg5MTggQzQxLjU1MywxOC45OTk4OTE4IDQyLDE4LjU1MTg5MTggNDIsMTcuOTk5ODkxOCBMNDIsMTEuODU3ODkxOCBDNDMuNzIsMTEuNDEwODkxOCA0NSw5Ljg1Nzg5MTgxIDQ1LDcuOTk5ODkxODEgQzQ1LDUuNzkzODkxODEgNDMuMjA2LDMuOTk5ODkxODEgNDEsMy45OTk4OTE4MSBDMzguNzk0LDMuOTk5ODkxODEgMzcsNS43OTM4OTE4MSAzNyw3Ljk5OTg5MTgxIEMzNyw5Ljg1Nzg5MTgxIDM4LjI4LDExLjQxMDg5MTggNDAsMTEuODU3ODkxOCBMNDAsMTYuOTk5ODkxOCBMMzAsMTYuOTk5ODkxOCBMMzAsMy45OTk4OTE4MSBDMzAsMy41Njg4OTE4MSAyOS43MjUsMy4xODc4OTE4MSAyOS4zMTYsMy4wNTA4OTE4MSBMMjAuMzE2LDAuMDUwODkxODExIEMyMC4wNDIsLTAuMDM5MTA4MTg5IDE5Ljc0NCwtMC4wMDkxMDgxODkwNCAxOS40OTYsMC4xMzU4OTE4MTEgTDcuNDk2LDcuMTM1ODkxODEgQzcuMTg4LDcuMzE0ODkxODEgNyw3LjY0NDg5MTgxIDcsNy45OTk4OTE4MSBMNywxNy40MTk4OTE4IEwwLjUwNCwyMS4xMzE4OTE4IEMwLjE5MiwyMS4zMDk4OTE4IDAsMjEuNjQwODkxOCAwLDIxLjk5OTg5MTggTDAsMzMuOTk5ODkxOCBDMCwzNC4zNTg4OTE4IDAuMTkyLDM0LjY4OTg5MTggMC41MDQsMzQuODY3ODkxOCBMNywzOC41Nzk4OTE4IEw3LDQ3Ljk5OTg5MTggQzcsNDguMzU0ODkxOCA3LjE4OCw0OC42ODQ4OTE4IDcuNDk2LDQ4Ljg2Mzg5MTggTDE5LjQ5Niw1NS44NjM4OTE4IEMxOS42NSw1NS45NTM4OTE4IDE5LjgyNSw1NS45OTk4OTE4IDIwLDU1Ljk5OTg5MTggQzIwLjEwNiw1NS45OTk4OTE4IDIwLjIxMyw1NS45ODI4OTE4IDIwLjMxNiw1NS45NDg4OTE4IEwyOS4zMTYsNTIuOTQ4ODkxOCBDMjkuNzI1LDUyLjgxMTg5MTggMzAsNTIuNDMwODkxOCAzMCw1MS45OTk4OTE4IEwzMCwzOS45OTk4OTE4IEwzNywzOS45OTk4OTE4IEwzNyw0NC4xNDE4OTE4IEMzNS4yOCw0NC41ODg4OTE4IDM0LDQ2LjE0MTg5MTggMzQsNDcuOTk5ODkxOCBDMzQsNTAuMjA1ODkxOCAzNS43OTQsNTEuOTk5ODkxOCAzOCw1MS45OTk4OTE4IEM0MC4yMDYsNTEuOTk5ODkxOCA0Miw1MC4yMDU4OTE4IDQyLDQ3Ljk5OTg5MTggQzQyLDQ2LjE0MTg5MTggNDAuNzIsNDQuNTg4ODkxOCAzOSw0NC4xNDE4OTE4IEwzOSwzOC45OTk4OTE4IEMzOSwzOC40NDc4OTE4IDM4LjU1MywzNy45OTk4OTE4IDM4LDM3Ljk5OTg5MTggTDMwLDM3Ljk5OTg5MTggTDMwLDMyLjk5OTg5MTggTDQyLjUsMzIuOTk5ODkxOCBMNDQuNjM4LDM1Ljg0OTg5MTggQzQ0LjIzOSwzNi40NzE4OTE4IDQ0LDM3LjIwNjg5MTggNDQsMzcuOTk5ODkxOCBDNDQsNDAuMjA1ODkxOCA0NS43OTQsNDEuOTk5ODkxOCA0OCw0MS45OTk4OTE4IEM1MC4yMDYsNDEuOTk5ODkxOCA1Miw0MC4yMDU4OTE4IDUyLDM3Ljk5OTg5MTggQzUyLDM1Ljc5Mzg5MTggNTAuMjA2LDMzLjk5OTg5MTggNDgsMzMuOTk5ODkxOCBDNDcuMzE2LDMzLjk5OTg5MTggNDYuNjgyLDM0LjE4Nzg5MTggNDYuMTE5LDM0LjQ5MTg5MTggTDQzLjgsMzEuMzk5ODkxOCBDNDMuNjExLDMxLjE0Nzg5MTggNDMuMzE0LDMwLjk5OTg5MTggNDMsMzAuOTk5ODkxOCBMMzAsMzAuOTk5ODkxOCBMMzAsMjUuOTk5ODkxOCBMNDguMTQyLDI1Ljk5OTg5MTggQzQ4LjU4OSwyNy43MTk4OTE4IDUwLjE0MSwyOC45OTk4OTE4IDUyLDI4Ljk5OTg5MTggQzU0LjIwNiwyOC45OTk4OTE4IDU2LDI3LjIwNTg5MTggNTYsMjQuOTk5ODkxOCBDNTYsMjIuNzkzODkxOCA1NC4yMDYsMjAuOTk5ODkxOCA1MiwyMC45OTk4OTE4IEw1MiwyMC45OTk4OTE4IFoiLz4mI3hhOyAgICAgICAgPC9nPiYjeGE7ICAgIDwvZz4mI3hhOzwvc3ZnPg==;fontStyle=1;spacingTop=6;" vertex="1" parent="yiugnFBK6Wv82bPLMD4G-1">
          <mxGeometry x="104" y="334" width="80" height="80" as="geometry" />
        </mxCell>
        <mxCell id="yiugnFBK6Wv82bPLMD4G-19" value="1" style="ellipse;whiteSpace=wrap;html=1;aspect=fixed;strokeWidth=2;fontFamily=Tahoma;spacingBottom=4;spacingRight=2;strokeColor=#d3d3d3;" vertex="1" parent="yiugnFBK6Wv82bPLMD4G-1">
          <mxGeometry x="330" y="57" width="20" height="20" as="geometry" />
        </mxCell>
        <mxCell id="yiugnFBK6Wv82bPLMD4G-22" style="edgeStyle=orthogonalEdgeStyle;rounded=0;orthogonalLoop=1;jettySize=auto;html=1;entryX=0;entryY=0.25;entryDx=0;entryDy=0;" edge="1" parent="yiugnFBK6Wv82bPLMD4G-1" source="yiugnFBK6Wv82bPLMD4G-9" target="yiugnFBK6Wv82bPLMD4G-11">
          <mxGeometry relative="1" as="geometry">
            <Array as="points">
              <mxPoint x="411" y="354" />
            </Array>
          </mxGeometry>
        </mxCell>
        <mxCell id="yiugnFBK6Wv82bPLMD4G-9" value="&lt;b&gt;AWS Lambda&lt;/b&gt;&lt;br&gt;IndexTableFunction" style="sketch=0;outlineConnect=0;fontColor=#232F3E;gradientColor=none;fillColor=#D45B07;strokeColor=none;dashed=0;verticalLabelPosition=bottom;verticalAlign=top;align=center;html=1;fontSize=12;fontStyle=0;aspect=fixed;pointerEvents=1;shape=mxgraph.aws4.lambda_function;labelBackgroundColor=default;" vertex="1" parent="yiugnFBK6Wv82bPLMD4G-1">
          <mxGeometry x="358" y="41" width="80" height="80" as="geometry" />
        </mxCell>
        <mxCell id="yiugnFBK6Wv82bPLMD4G-23" value="2" style="ellipse;whiteSpace=wrap;html=1;aspect=fixed;strokeWidth=2;fontFamily=Tahoma;spacingBottom=4;spacingRight=2;strokeColor=#d3d3d3;" vertex="1" parent="yiugnFBK6Wv82bPLMD4G-1">
          <mxGeometry x="356" y="168" width="20" height="20" as="geometry" />
        </mxCell>
        <mxCell id="yiugnFBK6Wv82bPLMD4G-24" value="3" style="ellipse;whiteSpace=wrap;html=1;aspect=fixed;strokeWidth=2;fontFamily=Tahoma;spacingBottom=4;spacingRight=2;strokeColor=#d3d3d3;" vertex="1" parent="yiugnFBK6Wv82bPLMD4G-1">
          <mxGeometry x="420" y="168" width="20" height="20" as="geometry" />
        </mxCell>
        <mxCell id="yiugnFBK6Wv82bPLMD4G-28" value="4" style="ellipse;whiteSpace=wrap;html=1;aspect=fixed;strokeWidth=2;fontFamily=Tahoma;spacingBottom=4;spacingRight=2;strokeColor=#d3d3d3;" vertex="1" parent="yiugnFBK6Wv82bPLMD4G-1">
          <mxGeometry x="427" y="538" width="20" height="20" as="geometry" />
        </mxCell>
        <mxCell id="yiugnFBK6Wv82bPLMD4G-29" value="5" style="ellipse;whiteSpace=wrap;html=1;aspect=fixed;strokeWidth=2;fontFamily=Tahoma;spacingBottom=4;spacingRight=2;strokeColor=#d3d3d3;" vertex="1" parent="yiugnFBK6Wv82bPLMD4G-1">
          <mxGeometry x="353" y="538" width="20" height="20" as="geometry" />
        </mxCell>
        <mxCell id="yiugnFBK6Wv82bPLMD4G-33" value="6" style="ellipse;whiteSpace=wrap;html=1;aspect=fixed;strokeWidth=2;fontFamily=Tahoma;spacingBottom=4;spacingRight=2;strokeColor=#d3d3d3;" vertex="1" parent="yiugnFBK6Wv82bPLMD4G-1">
          <mxGeometry x="330" y="616" width="20" height="20" as="geometry" />
        </mxCell>
        <mxCell id="yiugnFBK6Wv82bPLMD4G-37" value="Store vectors" style="text;html=1;align=center;verticalAlign=middle;resizable=0;points=[];autosize=1;strokeColor=none;fillColor=none;" vertex="1" parent="yiugnFBK6Wv82bPLMD4G-1">
          <mxGeometry x="417" y="190" width="89" height="26" as="geometry" />
        </mxCell>
        <mxCell id="yiugnFBK6Wv82bPLMD4G-38" value="Retrieve table metadata based &lt;br&gt;on similarity match of natural language query" style="text;html=1;align=center;verticalAlign=middle;resizable=0;points=[];autosize=1;strokeColor=none;fillColor=none;" vertex="1" parent="yiugnFBK6Wv82bPLMD4G-1">
          <mxGeometry x="427" y="538" width="257" height="41" as="geometry" />
        </mxCell>
        <mxCell id="yiugnFBK6Wv82bPLMD4G-39" value="Invoke the model including the metadata and natural language query. &lt;br&gt;Ask the model to generate SQL" style="text;html=1;align=center;verticalAlign=middle;resizable=0;points=[];autosize=1;strokeColor=none;fillColor=none;" vertex="1" parent="yiugnFBK6Wv82bPLMD4G-1">
          <mxGeometry x="5" y="510" width="385" height="41" as="geometry" />
        </mxCell>
        <mxCell id="yiugnFBK6Wv82bPLMD4G-41" value="Execute the generated SQL against snowflake &lt;br&gt;to retrieve the results" style="text;html=1;align=center;verticalAlign=middle;resizable=0;points=[];autosize=1;strokeColor=none;fillColor=none;" vertex="1" parent="yiugnFBK6Wv82bPLMD4G-1">
          <mxGeometry x="70" y="626" width="264" height="41" as="geometry" />
        </mxCell>
        <mxCell id="yiugnFBK6Wv82bPLMD4G-13" style="edgeStyle=orthogonalEdgeStyle;rounded=0;orthogonalLoop=1;jettySize=auto;html=1;" edge="1" parent="1" source="yiugnFBK6Wv82bPLMD4G-9" target="yiugnFBK6Wv82bPLMD4G-5">
          <mxGeometry relative="1" as="geometry" />
        </mxCell>
        <mxCell id="yiugnFBK6Wv82bPLMD4G-34" value="Collect table metadata" style="edgeLabel;html=1;align=center;verticalAlign=middle;resizable=0;points=[];" vertex="1" connectable="0" parent="yiugnFBK6Wv82bPLMD4G-13">
          <mxGeometry x="-0.3509" y="-4" relative="1" as="geometry">
            <mxPoint x="172" y="-20" as="offset" />
          </mxGeometry>
        </mxCell>
        <mxCell id="yiugnFBK6Wv82bPLMD4G-5" value="Snowflake" style="shape=image;verticalLabelPosition=bottom;labelBackgroundColor=default;verticalAlign=top;aspect=fixed;imageAspect=0;image=data:image/svg+xml,PHN2ZyB4bWxucz0iaHR0cDovL3d3dy53My5vcmcvMjAwMC9zdmciIHZpZXdCb3g9IjAgMCAxNDYuMzYgMTM5LjE2Ij48ZGVmcz48c3R5bGU+LmNscy0xe2ZpbGw6IzI5YjVlODt9LmNscy0ye2ZpbGw6I2ZmZjtmaWxsLXJ1bGU6ZXZlbm9kZDt9PC9zdHlsZT48L2RlZnM+PGcgaWQ9IkJhY2tncm91bmQiPjxyZWN0IGhlaWdodD0iMTM5LjE2IiB3aWR0aD0iMTQ2LjM2IiBjbGFzcz0iY2xzLTEiLz48L2c+PGcgZGF0YS1uYW1lPSJMYXllciAxIiBpZD0iTGF5ZXJfMSI+PHBhdGggZD0iTTEzNC44MSw2MC4xbC0xNi40Nyw5LjQ5TDEzNC44MSw3OWE4LjY1LDguNjUsMCwxLDEtOC42NywxNWwtMjkuNTEtMTdhOC42OCw4LjY4LDAsMCwxLTQuMzMtNy43NSw4LjQ4LDguNDgsMCwwLDEsLjMxLTIsOC42OCw4LjY4LDAsMCwxLDQtNS4xOWwyOS41MS0xNi45NEE4LjY5LDguNjksMCwwLDEsMTM4LDQ4LjMxLDguNTgsOC41OCwwLDAsMSwxMzQuODEsNjAuMVptLTE1LjU5LDQ2TDg5LjcyLDg5LjEzYTguNzIsOC43MiwwLDAsMC0xMy4wNiw3LjQ4djMzLjlhOC42OSw4LjY5LDAsMCwwLDE3LjM3LDB2LTE5TDExMC41NCwxMjFhOC42Niw4LjY2LDAsMSwwLDguNjgtMTVabS0zNC0zMy4xNkw3Mi45Miw4NS4wOWEyLjQ0LDIuNDQsMCwwLDEtMS41NC42NUg2Ny43N2EyLjUxLDIuNTEsMCwwLDEtMS41NC0uNjVMNTQsNzIuOWEyLjQ1LDIuNDUsMCwwLDEtLjY0LTEuNTJ2LTMuNkEyLjUsMi41LDAsMCwxLDU0LDY2LjI1TDY2LjIzLDU0LjA2YTIuNSwyLjUsMCwwLDEsMS41NC0uNjRoMy42MWEyLjQ1LDIuNDUsMCwwLDEsMS41NC42NEw4NS4xOCw2Ni4yNWEyLjQ5LDIuNDksMCwwLDEsLjYzLDEuNTN2My42QTIuNDQsMi40NCwwLDAsMSw4NS4xOCw3Mi45Wm0tOS44LTMuMzhBMi41OSwyLjU5LDAsMCwwLDc0LjczLDY4bC0zLjU1LTMuNTFhMi41MSwyLjUxLDAsMCwwLTEuNTQtLjY0aC0uMTNhMi40NiwyLjQ2LDAsMCwwLTEuNTMuNjRMNjQuNDMsNjhhMi41MSwyLjUxLDAsMCwwLS42MywxLjU1di4xM2EyLjQxLDIuNDEsMCwwLDAsLjYzLDEuNTJMNjgsNzQuN2EyLjQ4LDIuNDgsMCwwLDAsMS41My42NGguMTNhMi41MSwyLjUxLDAsMCwwLDEuNTQtLjY0bDMuNTUtMy41M2EyLjQ5LDIuNDksMCwwLDAsLjY1LTEuNTJaTTE5LjkzLDMzLjA4LDQ5LjQ0LDUwYTguNzMsOC43MywwLDAsMCwxMy4wNy03LjQ5VjguNjRhOC42OSw4LjY5LDAsMCwwLTE3LjM3LDB2MTlsLTE2LjUzLTkuNWE4LjY1LDguNjUsMCwxLDAtOC42OCwxNVpNODQuNjksNTEuMTZhOC42NCw4LjY0LDAsMCwwLDUtMS4xM2wyOS41LTE3YTguNjUsOC42NSwwLDEsMC04LjY4LTE1TDk0LDI3LjYxdi0xOWE4LjY5LDguNjksMCwwLDAtMTcuMzcsMHYzMy45QTguNjYsOC42NiwwLDAsMCw4NC42OSw1MS4xNlpNNTQuNDgsODhhOC41OCw4LjU4LDAsMCwwLTUsMS4xM0wxOS45MywxMDYuMDZhOC42Niw4LjY2LDAsMSwwLDguNjgsMTVsMTYuNTMtOS40OXYxOWE4LjY5LDguNjksMCwwLDAsMTcuMzcsMFY5Ni42MUE4LjY1LDguNjUsMCwwLDAsNTQuNDgsODhabS04LTE1Ljg3YTguNjEsOC42MSwwLDAsMC00LTEwTDEzLDQ1LjE0QTguNjksOC42OSwwLDAsMCwxLjE3LDQ4LjMxLDguNTksOC41OSwwLDAsMCw0LjM1LDYwLjFsMTYuNDcsOS40OUw0LjM1LDc5QTguNjUsOC42NSwwLDEsMCwxMyw5NGwyOS40OC0xN0E4LjU5LDguNTksMCwwLDAsNDYuNDcsNzIuMTNabTkzLjE1LTU2LjIySDEzOC4zdjEuNjNoMS4zMmMuNjEsMCwxLS4yOCwxLS44UzE0MC4yNiwxNS45MSwxMzkuNjIsMTUuOTFabS0yLjk0LTEuNWgzYzEuNjIsMCwyLjcuODksMi43LDIuMjdhMi4xNiwyLjE2LDAsMCwxLTEuMDgsMS45bDEuMTcsMS42OHYuMzRoLTEuNjlMMTM5LjYyLDE5SDEzOC4zVjIwLjZoLTEuNjJabTguMywzLjIyYTUuNDgsNS40OCwwLDAsMC01LjU4LTUuODNjLTMuMzEsMC01LjUxLDIuMzktNS41MSw1LjgzLDAsMy4yOCwyLjIsNS44Miw1LjUxLDUuODJBNS40Nyw1LjQ3LDAsMCwwLDE0NSwxNy42M1ptMS4zOCwwYzAsMy44OS0yLjYsNy4xNC03LDcuMTRzLTYuODktMy4yOC02Ljg5LTcuMTQsMi41Ny03LjE0LDYuODktNy4xNFMxNDYuMzYsMTMuNzMsMTQ2LjM2LDE3LjYzWiIgY2xhc3M9ImNscy0yIi8+PC9nPjwvc3ZnPg==;fontStyle=1;spacingTop=7;" vertex="1" parent="1">
          <mxGeometry x="-11" y="527" width="80" height="76.16" as="geometry" />
        </mxCell>
        <mxCell id="yiugnFBK6Wv82bPLMD4G-32" style="edgeStyle=orthogonalEdgeStyle;rounded=0;orthogonalLoop=1;jettySize=auto;html=1;" edge="1" parent="1" source="yiugnFBK6Wv82bPLMD4G-8" target="yiugnFBK6Wv82bPLMD4G-5">
          <mxGeometry relative="1" as="geometry" />
        </mxCell>
      </root>
    </mxGraphModel>
  </diagram>
</mxfile>
